<svg xmlns="http://www.w3.org/2000/svg" viewBox="0 0 392.22 222.62"><defs><style>.cls-1{fill:#b9c5c5;}.cls-2{fill:#959b9b;}.cls-3{fill:#e0dedf;}.cls-4{fill:#f5f1f2;}.cls-5{fill:#5c6969;}.cls-6{fill:#124933;}.cls-7{fill:#1d6243;}.cls-8{fill:#1e6243;}.cls-9{fill:#134933;}.cls-10{fill:#8f9796;}</style></defs><title>Ресурс 3</title><g id="Слой_2" data-name="Слой 2"><g id="Слой_1-2" data-name="Слой 1"><path class="cls-1" d="M0,222.42v-7.84L.33,214c.18-.29.36-.57.51-.87q15-30.18,30-60.37l3.61-7.28q2.46-5,4.92-9.92a6.32,6.32,0,0,1,.8-1.15l.36-.45.18-.25.3.05.57.11a5.35,5.35,0,0,0,1.08.16l36.09,0H85l0,.72v4.56q0,11.35,0,22.7a4.89,4.89,0,0,1-.13,1c0,.13-.05.26-.07.39l-.22,1.42-.71-1.25-.79-1.4c-.6-1.07-1.21-2.17-1.85-3.23-.39-.65-.86-1.28-1.31-1.88l-.24-.32-.77,1.33c-2.21,3.81-4.49,7.75-6.69,11.66a1.18,1.18,0,0,0,.19.74c.48.62,1,1.21,1.56,1.79.35.38.69.76,1,1.15a3.61,3.61,0,0,1,.47.77l.16.3.25.44-.92.52-4.14-3.2L63.7,184.67l6.49,5.14-.8,1.1-6.8-4.32-.05.05-2.84,5q-2.72,4.77-5.46,9.54a.56.56,0,0,0-.1.27s.07.09.35.24L58.67,204l7.65,4.21-1.13.35a2,2,0,0,1-.59.09,2.29,2.29,0,0,1-.84-.17l-.89-.34q-4.17-1.58-8.34-3.18a6.91,6.91,0,0,0-1.77-.56c-.31,0-.5.29-1.19,1.5l-.44.77-.43-.77a10.47,10.47,0,0,0-.77-1.13A9.11,9.11,0,0,1,48.84,203a41.75,41.75,0,0,0-2.45-4.45l-.54-.9a2,2,0,0,0-.55-.5l-.27-.21-.13-.11,0-.16c0-.18-.07-.35-.09-.5a2,2,0,0,0-.15-.61c-1.07-1.94-2.09-3.72-3.13-5.46a1,1,0,0,0-.24-.24l0,.07-.56,1L39.47,193c-.18.31-.39.61-.59.91a5.23,5.23,0,0,0-1,1.92,3.39,3.39,0,0,1-1,1.81,3.15,3.15,0,0,0-.65.9,21,21,0,0,1-1.39,2.65c-.33.55-.65,1.11-.94,1.68a1.5,1.5,0,0,0,0,.59,4.78,4.78,0,0,1,0,.48v.22l-.34.32-.08,0a4,4,0,0,1-.42.16,1.65,1.65,0,0,0-.4.16c-.7,1.18-1.38,2.38-2.06,3.59-.53.94-1.06,1.88-1.61,2.81-.16.28-.15.38-.14.4s.06.13.39.29a6,6,0,0,1,1,.66l.38.28.41.29-.71,1L30,214l-.54-.22a4.5,4.5,0,0,0-1.1-.37h0a1,1,0,0,0-.62.2c-1.3,2.21-2.59,4.48-3.84,6.69l-1.22,2.15Z"/><path class="cls-1" d="M.5,214.72c.27-.44.56-.87.79-1.33q15-30.18,30-60.37c2.85-5.73,5.67-11.47,8.53-17.2A11.08,11.08,0,0,1,41,134.3a10.87,10.87,0,0,0,1.73.28q20.9,0,41.8,0v.23q0,13.62,0,27.25a8.44,8.44,0,0,1-.19,1.28c-.88-1.55-1.72-3.12-2.65-4.64-.59-1-1.3-1.85-2-2.77-.07,0-.16.05-.19.11-2.59,4.48-5.19,8.95-7.72,13.45a1.48,1.48,0,0,0,.23,1.29c.81,1,1.74,2,2.6,3a6,6,0,0,1,.57,1l-.19.11-4.33-3.35L63,184.8l6.45,5.11-.24.33L62.54,186a2.63,2.63,0,0,0-.44.42c-2.77,4.84-5.52,9.69-8.31,14.52-.39.67-.06.92.45,1.2L59.48,205,65,208a1.58,1.58,0,0,1-1.1-.07q-4.62-1.75-9.23-3.52c-2.39-.92-2.39-.93-3.58,1.16-.55-1-1.36-1.75-1.83-2.82a52.67,52.67,0,0,0-3-5.4,3.7,3.7,0,0,0-.92-.83,5.08,5.08,0,0,0-.29-1.25q-1.52-2.76-3.13-5.47a3.77,3.77,0,0,0-.88-.77l-.16.19-.12.46c-.58,1-1.17,2-1.75,3s-1.46,1.94-1.64,3-1.24,1.62-1.64,2.59c-.61,1.5-1.58,2.84-2.32,4.29-.18.35,0,.86,0,1.3l-.13.12c-.35.16-.86.23-1,.5-1.26,2.12-2.44,4.29-3.68,6.42-.41.7-.21,1.06.46,1.39a10.11,10.11,0,0,1,1.29.9l-.2.28a8.54,8.54,0,0,0-1.75-.62,1.35,1.35,0,0,0-1.13.44c-1.68,2.84-3.29,5.73-4.93,8.6H.5Z"/><path class="cls-2" d="M368.93,222.22l-1.18-2.07c-1.5-2.62-3-5.33-4.61-8a1,1,0,0,0-.49-.15c-1.2.36-2.37.78-3.5,1.2l-1.6.58-.74-1,.49-.28,1.16-.68c.91-.54,1.85-1.09,2.82-1.55.46-.21.51-.34.52-.37s0-.17-.27-.61c-.47-.71-.87-1.47-1.27-2.2-.23-.42-.46-.84-.69-1.26-.66-1.14-1.33-2.28-2-3.43l-.64-1.1-2.41,1.4-.8-.79,2.37-2.1L352,192.72l-1.31.83-.93-.71.32-.41.27-.32a3,3,0,0,0,.46-.61,1.24,1.24,0,0,0,.15-.59c-1.15-2-2.34-4-3.54-6.05l-.79-1.34-.08,0c-.39.67-.79,1.39-1.19,2.1-.69,1.25-1.41,2.54-2.22,3.76-1,1.56-1,2.3,0,3.18l.42.35-.52.52-.28.29-1.55-.93L337.15,200l2.27,1.93-.36.38-.1.12-.26.37-2.39-1.35-.77,1.35c-1.39,2.41-2.7,4.7-4,7a1.1,1.1,0,0,0,.27.45c1.15.69,2.36,1.36,3.53,2l1.77,1-.74.9L332,212.59a5.53,5.53,0,0,0-1.38-.4c-.25,0-.44.21-1.13,1.13a1.52,1.52,0,0,1-.25.25l-.46.43-.38-.49-1.09-1.9q-1.69-2.95-3.4-5.88a6.75,6.75,0,0,0-.48-.69,7.76,7.76,0,0,1-.56-.81c-.63-1.1-1.24-2.2-1.85-3.31l-.66-1.19L317.91,204q-2.16,3.79-4.34,7.57a14,14,0,0,1-1.1,1.55l-.5.66-.48.65-.37-.72c-.82-1.59-1.12-2-1.56-2a6.79,6.79,0,0,0-2.11.77,1.67,1.67,0,0,1-.34.2L303,214.2l-.82-1.17.75-.29.24-.09,1.56-.83c1.14-.62,2.33-1.25,3.53-1.82.42-.2.46-.31.46-.32s0-.16-.24-.59c-1-1.62-1.9-3.3-2.79-4.92l-1.16-2.08,0-.17c0-.18.06-.36.09-.54a5.82,5.82,0,0,0,.13-1q0-52,0-104v-.5l4.36,0,9,0h6.77c3,0,5.94,0,8.91,0a1.69,1.69,0,0,0,.64-.3c.15-.1.31-.19.46-.27l.47-.23,4.55,10.22q4.83,10.84,9.67,21.68,3.43,7.67,6.88,15.34l5.88,13.11,6,13.35q3.35,7.5,6.7,15l6,13.42q3.47,7.73,6.93,15.46c.94,2.1,1.85,4.21,2.76,6.32l1.52,3.51-23.11,0Z"/><path class="cls-2" d="M335.12,95.7q7,15.72,14,31.43,6.36,14.23,12.75,28.45t12.66,28.36q6.47,14.45,13,28.88c1.35,3,2.65,6.08,4,9.12l-22.1,0c-1.92-3.36-3.83-6.72-5.8-10.05a1.24,1.24,0,0,0-1.11-.37c-1.59.49-3.15,1.09-4.72,1.65l-.18-.24c1.31-.75,2.59-1.57,4-2.22,1-.45,1-.87.46-1.7-.72-1.1-1.29-2.29-1.95-3.43-.95-1.64-1.92-3.28-2.9-5l-2.51,1.46-.15-.15,2.27-2L352.18,192l-1.45.93-.25-.19a6.1,6.1,0,0,0,.79-1,1.36,1.36,0,0,0,.15-1c-1.49-2.62-3-5.21-4.58-7.81-.24.13-.58.2-.69.41-1.15,2-2.16,4-3.41,5.87-.93,1.4-1.37,2.6.12,3.84l-.14.14-1.65-1-4.55,7.94,2.18,1.86-.14.18-2.43-1.38c-1.73,3-3.43,6-5.06,8.92-.11.2.21.86.5,1,1.57.94,3.19,1.8,4.79,2.69l-.14.17-4-1.46c-1.89-.68-1.89-.68-3.08.9a2,2,0,0,1-.26.24c-1.5-2.6-3-5.19-4.49-7.78-.31-.52-.74-1-1-1.5-.88-1.54-1.73-3.1-2.59-4.66-.52-.92-.63-.1-.81.21-2.26,3.93-4.49,7.88-6.76,11.8a24.78,24.78,0,0,1-1.58,2.16c-1.41-2.74-1.55-2.79-4.32-1.5-.11,0-.2.14-.31.18l-3.71,1.41-.23-.33a4.24,4.24,0,0,0,.44-.17c1.69-.89,3.35-1.83,5.07-2.64.9-.43.92-.81.44-1.62-1.34-2.25-2.58-4.55-3.86-6.83a11.73,11.73,0,0,0,.22-1.63q0-52,0-104c4.27,0,8.54-.05,12.81-.06,5.23,0,10.46,0,15.69,0C334.24,96.31,334.68,95.91,335.12,95.7Z"/><path class="cls-1" d="M170.34,211.33c-2.18-.62-4.25-1.4-6.25-2.15l-1.71-.63h0a1.83,1.83,0,0,0-.51.11,4.61,4.61,0,0,1-.47.12l-.33.06-2.64-4.19a.86.86,0,0,1-.24-.59.55.55,0,0,0,0-.11c-1.24-2.24-2.28-4.07-3.26-5.71l-.24-.06-.36-.09-.14,0-.37-.48v-.18a4.31,4.31,0,0,1,0-.45,1.5,1.5,0,0,0,0-.48c-.87-1.58-1.78-3.14-2.69-4.7l-.87-1.49-.08-.11c-.06.09-.14.22-.19.31l-.59,1c-.91,1.59-1.85,3.24-2.74,4.88a1.19,1.19,0,0,0,0,.53,1.37,1.37,0,0,1,0,.19v.17l-2.21,2.44-2.93-5.14c-1.48-2.6-3-5.2-4.47-7.77h0a1.84,1.84,0,0,0-.37-.07,16.07,16.07,0,0,0-1.58,1c-.32.22-.63.44-1,.65-.86.56-1.74,1.1-2.61,1.65L130,191l-.7-1.05.58-.53c.2-.19.41-.38.63-.56l.74-.58c1.35-1.06,2.7-2.12,4.08-3.14.48-.36.5-.44.23-.88-1.12-1.91-2.21-3.85-3.3-5.78q-.94-1.68-1.89-3.35c-.42-.73-.86-1.45-1.33-2.21l-.39-.63-4.74,3.67,0-1.07a2.33,2.33,0,0,1,.6-1.51c.32-.36.65-.72,1-1.08.55-.59,1.11-1.2,1.61-1.84a1,1,0,0,0,.1-.77c-.42-.82-.9-1.63-1.37-2.42-.31-.53-.63-1.06-.93-1.59-.7-1.25-1.38-2.5-2.06-3.76l-1-1.92.16-.25c.11-.17.23-.34.34-.5a5.6,5.6,0,0,0,.6-1q2.39-5.54,4.71-11.11c.81-1.93,1.59-3.86,2.38-5.8l1.06-2.59,1.41-3.24c1-2.4,2.08-4.8,3.11-7.2q3.89-9.16,7.74-18.33l1.72-4.07c.38-.9.75-1.8,1.12-2.71l.65-1.58.92,0c.4,0,.8,0,1.21,0h40.78c.46,0,.91,0,1.37,0l1.15,0,0,.63V182.4l-.3.13-.41.16a4.58,4.58,0,0,0-.76.35c-.38.24-.75.51-1.11.79l-.86.64-.79-.93.27-.32.45-.57a10.53,10.53,0,0,1,1.17-1.34c.43-.39.45-.56.12-1.11-1.1-1.86-2.17-3.74-3.25-5.62q-1.14-2-2.28-4a1.52,1.52,0,0,0-.41-.34l0,0-.05,0a1.36,1.36,0,0,0-.39.26c-2.15,3.7-4.06,7.06-5.84,10.27a.86.86,0,0,0,.1.56c.51.7,1.09,1.39,1.64,2l.94,1.14-.65.59-.37-.2-.73-.52a20.64,20.64,0,0,1-1.68-1.25c-.33-.29-.44-.29-.45-.29s-.1,0-.32.43c-1.86,3.39-3.43,6.12-4.93,8.6-.43.71-.39.91.25,1.36.83.57,1.61,1.21,2.37,1.83l1,.79.37.29-.76,1.07-.41-.25-1.07-.69c-.89-.57-1.78-1.15-2.65-1.75-.28-.19-.37-.2-.39-.2s-.09,0-.26.36c-2.09,3.72-4.27,7.47-6.33,11-.18.3-.15.4-.15.41s0,.12.38.29c2.13,1.11,4.22,2.27,6,3.25a5,5,0,0,1,.81.6l.31.26Z"/><path class="cls-1" d="M131.56,138.94c1.5-3.48,3-6.95,4.51-10.44q4.75-11.19,9.46-22.4c.56-1.32,1.09-2.64,1.64-4,.6,0,1.2.07,1.8.07h40.78c.68,0,1.36,0,2-.05v.15q0,39.89,0,79.77a9.05,9.05,0,0,0-1.24.55c-.57.35-1.08.78-1.62,1.17l-.22-.26a18.07,18.07,0,0,1,1.57-1.86,1.15,1.15,0,0,0,.21-1.73c-1.88-3.18-3.67-6.4-5.53-9.59-.18-.3-.56-.48-.85-.72-.31.21-.73.34-.9.63q-3,5.11-5.85,10.28a1.26,1.26,0,0,0,.13,1.1c.72,1,1.53,1.9,2.3,2.84l0,0c-.8-.58-1.63-1.1-2.38-1.74s-1.06-.57-1.53.28c-1.59,2.89-3.21,5.76-4.92,8.58-.56.92-.47,1.43.39,2,1.16.8,2.23,1.73,3.34,2.6l-.21.3c-1.24-.81-2.5-1.6-3.71-2.44-.63-.43-1-.43-1.38.32-2.06,3.68-4.19,7.32-6.32,11-.41.7-.25,1,.43,1.4,2,1,4,2.14,6,3.24a8.48,8.48,0,0,1,1,.81c-2.77-.79-5.33-1.82-7.92-2.77-.35-.13-.84.13-1.26.21l-2.51-4c-.16-.08-.07-.38-.18-.57-1.08-2-2.17-3.89-3.31-5.81-.12-.2-.55-.21-.83-.3l-.17-.22c0-.4.16-.88,0-1.18-1.15-2.09-2.37-4.14-3.56-6.21-.56-.85-.86-.29-1.15.22-1.12,2-2.25,3.92-3.33,5.91a1.88,1.88,0,0,0-.1.92l-1.63,1.8L143,196.15c-1.83-3.21-3.65-6.44-5.52-9.62a1.09,1.09,0,0,0-1-.27c-.9.5-1.72,1.14-2.58,1.7-1.23.79-2.47,1.56-3.71,2.34L130,190c.29-.26.56-.54.86-.78,1.6-1.25,3.19-2.5,4.81-3.71.59-.44.81-.79.37-1.54-1.77-3-3.45-6.08-5.19-9.12-.62-1.09-1.3-2.15-2-3.33l-4.33,3.36a1.83,1.83,0,0,1,.47-1.2c.86-1,1.8-1.91,2.61-2.93a1.49,1.49,0,0,0,.15-1.31c-.7-1.38-1.56-2.67-2.31-4-1-1.79-2-3.61-3-5.41a11.35,11.35,0,0,0,1-1.56q2.39-5.54,4.71-11.11C129.28,144.55,130.41,141.74,131.56,138.94Z"/><path class="cls-2" d="M277.08,211.52l-.08-.19a39.18,39.18,0,0,0-2.58-4.61c-.76-1.23-1.55-2.51-2.22-3.84-.82-1.64-1.78-3.23-2.77-4.85a2,2,0,0,0-.59-.49c-.14-.09-.27-.18-.39-.27l-.14-.11,0-.17c0-.16-.06-.33-.09-.51a3.53,3.53,0,0,0-.27-1c-.81-1.56-1.71-3.08-2.58-4.55a8,8,0,0,0-.65-.9l-.09-.11a1.24,1.24,0,0,0-.34.2c-1.22,2.06-2.31,4-3.32,5.88a1.58,1.58,0,0,0,0,.46,4,4,0,0,1,.05.44v.22l-.49.49-1.17-.21-.1-.26-.1-.27a2.59,2.59,0,0,0-.18-.44q-2.75-4.81-5.52-9.61l-1.28-2.21c-.87-1.5-1.74-3-2.59-4.51-.07-.12-.23-.38-.35-.38a.92.92,0,0,0-.45.21c-1.3.89-2.65,1.76-4,2.6l-.55.35-4.72,3-3.12,2,.31-1.22a2.63,2.63,0,0,1,.91-1.45c.62-.5,1.25-1,1.89-1.46l1.51-1.16,2.44-1.93c1.36-1.08,2.73-2.17,4.11-3.23.31-.24.32-.25,0-.73-1.12-1.92-2.22-3.85-3.32-5.78l-1.79-3.13c-.79-1.38-1.59-2.75-2.4-4.14l-.74-1.27-5.23,4.14-.92-.7.18-.37c.07-.15.13-.31.2-.46a4,4,0,0,1,.63-1.16c.51-.6,1.06-1.18,1.6-1.75s1.2-1.28,1.76-1.94a1.07,1.07,0,0,0,.12-.75c-2.51-4.48-5.08-9-7.63-13.35a17,17,0,0,0-1.33-1.87l-.32-.41a3.88,3.88,0,0,0-.64.76q-2.26,3.9-4.49,7.81-2.06,3.59-4.13,7.18c-.27.47-.26.64.07,1,1.15,1.16,2.27,2.38,3.33,3.62a3.81,3.81,0,0,1,.6,1.14c.06.15.12.31.19.45l.18.39-1,.64-5.15-4-.32.57q-4.06,7-8.09,14a1.6,1.6,0,0,0,.15.33c1.05.87,2.13,1.73,3.21,2.58l2.16,1.72c1.25,1,2.49,2,3.73,3.06l2.24,1.84-.45.39-.13.12-.28.28-3.32-2.11c-2.73-1.73-5.47-3.47-8.18-5.23a1.14,1.14,0,0,0-.54-.24c-.11,0-.26.16-.44.48-2,3.6-4.08,7.2-6.11,10.69-.45.77-1,1.5-1.46,2.22l-.67,1-.6.88-.3-1a.59.59,0,0,0-.1-.22,1.77,1.77,0,0,1-.33.25l-3.22,2.11-.82-1.15,1.14-.9c.59-.47,1.19-.94,1.8-1.39s.56-.51.2-1.12c-1.34-2.27-2.65-4.61-3.92-6.88l-1.52-2.7V101.82l1.08,0c.44,0,.89,0,1.33,0h41.13c.38,0,.75,0,1.13,0l.87,0L240,109l2.85,6.69q5.49,12.85,11,25.71a3.47,3.47,0,0,0,.32.55l.22.35,0,.05c.06.2.13.39.18.59a12.18,12.18,0,0,0,.41,1.18q2.15,5.07,4.32,10.14L265,167.68q5.85,13.7,11.69,27.41c1,2.29,1.92,4.58,2.86,6.88l1.36,3.3-.73,1.4c-.47.93-1,1.89-1.51,2.8-.2.34-.18.45-.18.45s0,.11.42.31c1.1.57,2.19,1.2,3.25,1.8l1.87,1.06-.55.62-.23.28Z"/><path class="cls-2" d="M191.78,182.07q0-39.89,0-79.77c.64,0,1.28-.07,1.92-.07h41.13c.56,0,1.12,0,1.68-.05l3,7q6.92,16.2,13.83,32.4a7.51,7.51,0,0,0,.55.91c.2.6.36,1.23.6,1.81q2.93,6.9,5.88,13.79,7.93,18.59,15.86,37.17c1.41,3.31,2.75,6.64,4.13,10-.7,1.33-1.35,2.69-2.11,4-.44.75-.29,1.08.45,1.46,1.55.8,3,1.7,4.56,2.55l-.15.17-5.66-2.26c-1.33-3-3.35-5.56-4.81-8.47-.84-1.68-1.81-3.29-2.79-4.89a4.25,4.25,0,0,0-1.1-.9,6.77,6.77,0,0,0-.41-1.67c-.81-1.55-1.7-3.07-2.59-4.58a16.14,16.14,0,0,0-1-1.39c-.31.19-.75.3-.91.58-1.15,1.94-2.27,3.91-3.33,5.9-.16.3,0,.77,0,1.15l-.15.15-.63-.11a5.66,5.66,0,0,0-.31-.77q-2.75-4.81-5.52-9.61c-1.29-2.24-2.6-4.46-3.87-6.72-.42-.74-.83-.81-1.52-.34-1.47,1-3,2-4.49,2.94l-6.78,4.33a2.12,2.12,0,0,1,.74-1.18c1.11-.89,2.27-1.73,3.39-2.61,2.19-1.72,4.35-3.46,6.55-5.16.6-.46.51-.79.17-1.38-1.73-3-3.4-5.94-5.1-8.91-1.12-2-2.26-3.89-3.44-5.92l-5.38,4.25-.29-.22a6.73,6.73,0,0,1,.75-1.51c1.09-1.26,2.29-2.43,3.36-3.7a1.45,1.45,0,0,0,.18-1.31q-3.76-6.71-7.64-13.36a32.65,32.65,0,0,0-2-2.79,8.35,8.35,0,0,0-1.12,1.27c-2.89,5-5.74,10-8.62,15a1.1,1.1,0,0,0,.15,1.57q1.72,1.73,3.31,3.59a6.41,6.41,0,0,1,.72,1.48l-.3.2L217.46,162c-.21.17-.33.22-.39.32-2.83,4.89-5.67,9.77-8.46,14.68a1,1,0,0,0,.26,1c1.77,1.47,3.59,2.87,5.38,4.32s3.67,3,5.5,4.52l-.15.14c-3.72-2.37-7.46-4.72-11.16-7.12-.81-.53-1.23-.41-1.69.42q-3,5.36-6.11,10.68c-.64,1.09-1.4,2.11-2.11,3.16-.24-.82-.7-.56-1.18-.25l-2.82,1.85-.26-.37c.85-.66,1.69-1.35,2.55-2,.69-.51.82-.95.34-1.77C195.3,188.41,193.56,185.23,191.78,182.07Z"/><path class="cls-1" d="M278.64,202.35c-.94-2.29-1.88-4.59-2.86-6.87q-5.83-13.71-11.69-27.41l-5.73-13.41q-2.17-5.07-4.32-10.14a13,13,0,0,1-.44-1.28l-.24-.75,13.07-28.65q3.83-8.41,7.68-16.81a2.32,2.32,0,0,1,.63-.74L275,96l.15-.15h4.75l23.74,0a10.43,10.43,0,0,0,1.08-.08l.54-.05.45,0,.09.44a1.88,1.88,0,0,1,0,.25q0,52,0,104a6.59,6.59,0,0,1-.14,1.2c0,.17-.06.33-.08.5l-.19,1.3L303.84,201l-1.93,1.2-.83-.94,2-1.7-4.11-7.14-2.09,1.39.15-1.1a2.41,2.41,0,0,1,.45-1,2.38,2.38,0,0,0,.19-.31,1.67,1.67,0,0,0,.23-.77c-1.12-2-2.31-4-3.46-6l-.77-1.31-1.23,2.16c-1,1.71-1.95,3.43-2.95,5.13a.72.72,0,0,0,.15,1.07c.16.16.31.34.45.51l.51.59-.92.79-1.33-.87-4.1,7.14,2.41,2.11-.41.38-.13.13-.27.28-2.41-1.42-.12.19-.73,1.19-1.21,1.92-1.07,1.69Z"/><path class="cls-1" d="M280.37,205.24c-1.37-3.32-2.72-6.66-4.13-10q-7.91-18.59-15.86-37.17-2.94-6.89-5.88-13.79c-.25-.58-.41-1.21-.6-1.81l10.36-22.7q5.15-11.3,10.31-22.59c.15-.33.51-.56.77-.83l28.27,0c.55,0,1.11-.09,1.66-.13a1.37,1.37,0,0,1,0,.18q0,52,0,104a11.72,11.72,0,0,1-.22,1.63L304,200.37l-2,1.23-.22-.25,1.89-1.65-4.58-8-1.6,1.07a3.81,3.81,0,0,1,.6-1.21c.17-.37.38-.93.22-1.21-1.46-2.6-3-5.16-4.49-7.73l-.11-.2c-.09.06-.21.09-.26.17-1.48,2.58-2.93,5.17-4.43,7.74a1.21,1.21,0,0,0,.23,1.67c.22.22.41.47.61.7l-.25.22-1.46-1-4.57,8,2.3,2-.15.15-2.5-1.47c-.4.66-.74,1.24-1.09,1.8Z"/><path class="cls-3" d="M191.28,102.17v-11q0-43.79,0-87.59a7,7,0,0,0-.13-1.12c0-.19-.06-.38-.09-.57l0-.13L191.76,0l.51.9.23.39a5.81,5.81,0,0,1,.37.67l43.35,98.24c.18.4.34.8.51,1.21l.52,1.24-1.25,0c-.39,0-.78,0-1.17,0H193.7c-.43,0-.86,0-1.29,0l-1.1,0Z"/><path class="cls-3" d="M236.51,102.17c-.56,0-1.12.05-1.68.05H193.7c-.64,0-1.28,0-1.92.07v-.14q0-49.28,0-98.55a14,14,0,0,0-.22-1.76l.28-.7c.25.44.45.72.58,1l26.51,60.09,16.84,38.16C236,101,236.26,101.58,236.51,102.17Z"/><path class="cls-4" d="M149,102.7c-.42,0-.84,0-1.25,0l-1.3-.05,17.25-39L190.83,2.18c.06-.14.13-.27.2-.4l.81-1.62.21,1.62c0,.18.05.36.08.54a7.81,7.81,0,0,1,.14,1.28q0,43.79,0,87.59v11.45l-1.13,0c-.47,0-.93,0-1.4,0H149Z"/><path class="cls-4" d="M191.55,1.85a14,14,0,0,1,.22,1.76q0,49.28,0,98.55c-.68,0-1.36.05-2,.05H149c-.6,0-1.2,0-1.8-.07q8.48-19.19,17-38.37L191.29,2.38C191.37,2.2,191.47,2,191.55,1.85Z"/><path class="cls-3" d="M84,134.61v-3.74q0-39.08,0-78.16a4.87,4.87,0,0,0-.11-.87c0-.16-.06-.31-.08-.47l0-.15.86-1.84.77,1.29c.18.29.32.53.45.78L120.35,118l8,15.42c.14.28.27.56.39.85l.48,1.08h-10l-22.24,0H96.6l-8.32,0-4.26,0Z"/><path class="cls-3" d="M84.5,134.83v-.23q0-40.95,0-81.89a10,10,0,0,0-.2-1.4l.39-.85c.3.52.53.86.72,1.23l34.49,66.52q4,7.72,8,15.42c.2.39.36.8.54,1.2l-31.51,0C92.81,134.79,88.65,134.81,84.5,134.83Z"/><path class="cls-4" d="M78.79,135.09l-36.1,0a6.2,6.2,0,0,1-1.28-.18l-.53-.1-.68-.11L83.39,51.91c.1-.2.22-.39.33-.59l.87-1.54.21,1.46c0,.14,0,.29.07.43a5.69,5.69,0,0,1,.13,1q0,39.08,0,78.16v4.23Z"/><path class="cls-4" d="M84.3,51.3a10,10,0,0,1,.2,1.4q0,40.94,0,81.89-20.9,0-41.8,0A10.87,10.87,0,0,1,41,134.3L83.83,52.14C84,51.85,84.14,51.58,84.3,51.3Z"/><path class="cls-2" d="M108,190.72c-1.74-1.14-3.48-2.27-5.2-3.44a1.12,1.12,0,0,0-.52-.25c-.08,0-.2.15-.32.4-.36.73-.76,1.45-1.16,2.15l-.51.91-.42.76-.45-.74-.59-1c-.47-.75-1-1.52-1.38-2.32-.15-.28-.29-.45-.37-.45a1,1,0,0,0-.47.23c-1.44,1-2.95,1.94-4.4,2.86l-.54.34a4.89,4.89,0,0,1-.87.41l-.35.14-.55-.82a59.29,59.29,0,0,1,5.5-4.59c.53-.4.61-.53.28-1.09-1.76-3-3.5-6-5.18-9l-1.64-2.88-4.26,3.36-.86-.78.25-.36.23-.34a7,7,0,0,1,.59-.81l.17-.2c.75-.86,1.53-1.74,2.36-2.56.31-.31.35-.46.06-1-.88-1.47-1.73-3-2.59-4.44l-1-1.82,0-.17c0-.14.05-.29.08-.43a4.12,4.12,0,0,0,.11-.77q0-11.35,0-22.69v-5.05l4.27,0,8.33,0H97l22.23,0h9.53l3.41,4.55L131,141.7c-.79,1.94-1.59,3.89-2.4,5.83q-2.33,5.57-4.71,11.12a6.49,6.49,0,0,1-.71,1.17l-.32.46-.43.66-1-1.54c-.55-.89-1.09-1.77-1.67-2.64h0l-.14,0-.09.09-.51.88c-2.36,4.09-4.81,8.32-7.16,12.5a1,1,0,0,0,.16.65c.5.63,1.06,1.23,1.6,1.82.34.37.67.73,1,1.11a5,5,0,0,1,.52.75l.19.31.25.38-.9.69-4.18-3.26a1.27,1.27,0,0,0-.12.17l-2,3.48c-1.51,2.65-3,5.3-4.57,7.93-.43.74-.38,1,.3,1.5,1.63,1.2,3.23,2.48,4.78,3.72l1.9,1.51.35.27-.67,1.1Z"/><path class="cls-2" d="M84.5,134.83c4.15,0,8.31,0,12.46,0l31.51,0,3.09,4.12c-1.15,2.8-2.28,5.6-3.44,8.39q-2.33,5.57-4.71,11.11a11.35,11.35,0,0,1-1,1.56c-.73-1.18-1.45-2.37-2.21-3.53-.12-.18-.44-.22-.67-.32a2.11,2.11,0,0,0-.42.41c-2.57,4.45-5.15,8.9-7.68,13.38a1.37,1.37,0,0,0,.2,1.21c.82,1,1.75,2,2.62,2.95a8.55,8.55,0,0,1,.66,1l-.22.18L110.43,172a6.68,6.68,0,0,0-.48.62c-2.18,3.8-4.34,7.63-6.56,11.41a1.36,1.36,0,0,0,.44,2.15c2.27,1.68,4.45,3.48,6.67,5.23l-.17.28c-2.42-1.59-4.85-3.15-7.24-4.78-.72-.49-1.16-.5-1.57.34-.51,1-1.1,2-1.65,3-.66-1.08-1.36-2.14-2-3.25-.42-.78-.8-.93-1.57-.4-1.6,1.11-3.27,2.14-4.92,3.18a8.48,8.48,0,0,1-1.16.51,58.7,58.7,0,0,1,5.46-4.55c.66-.5.91-.89.4-1.75-2.31-3.91-4.53-7.88-6.77-11.83a6.38,6.38,0,0,1-.26-.61l-4.44,3.5-.22-.2a12.07,12.07,0,0,1,.79-1.11c.82-.93,1.63-1.86,2.51-2.73a1.08,1.08,0,0,0,.14-1.57c-1.21-2-2.37-4.06-3.54-6.09a8.44,8.44,0,0,0,.19-1.28Q84.51,148.45,84.5,134.83Z"/><path class="cls-3" d="M304.8,96.44a1.12,1.12,0,0,0,0-.11v-.05l.09-7.61q.1-8.38.17-16.77.14-19.79.23-39.58V31a6.15,6.15,0,0,0-.1-1c0-.17-.05-.33-.07-.5l0-.15.89-1.79,4,9L335.17,94.5c.1.23.19.46.28.7l.3.75-.42.2a4.2,4.2,0,0,0-.37.22,2.28,2.28,0,0,1-1.16.45c-3,0-5.95,0-8.92,0h-6.77l-8.95,0-4.33,0Z"/><path class="cls-3" d="M335.12,95.7c-.44.22-.88.62-1.32.62-5.23,0-10.46,0-15.69,0-4.27,0-8.54,0-12.81.06a1.34,1.34,0,0,0,0-.18c.09-8.11.2-16.22.26-24.33q.15-20.45.24-40.89a12.31,12.31,0,0,0-.18-1.53l.34-.7,3.53,8L334.71,94.7C334.86,95,335,95.36,335.12,95.7Z"/><path class="cls-4" d="M276.71,92.1q2-4.58,4.09-9.14,9.27-20.5,18.56-41l5.41-12c.08-.18.17-.35.25-.53l.86-1.76.21,1.68c0,.16,0,.31.07.47a7,7,0,0,1,.11,1.13v1.31q-.1,19.79-.23,39.58-.06,8.39-.17,16.77l-.09,8-.46,0-.53.05a11.42,11.42,0,0,1-1.17.08l-23.75,0h-5.29Z"/><path class="cls-4" d="M305.59,29.47a12.31,12.31,0,0,1,.18,1.53q-.11,20.45-.24,40.89c-.06,8.11-.17,16.22-.26,24.33-.55,0-1.11.13-1.66.13l-28.27,0c2-4.41,3.92-8.83,5.91-13.23q12-26.47,24-52.94C305.34,30,305.47,29.72,305.59,29.47Z"/><path class="cls-5" d="M391.46,222.41l0-.4Z"/><path class="cls-6" d="M84.31,163.35c1.18,2,2.34,4.08,3.54,6.09a1.08,1.08,0,0,1-.14,1.57c-.88.86-1.69,1.8-2.51,2.73a12.07,12.07,0,0,0-.79,1.11l.22.2,4.44-3.5a6.38,6.38,0,0,0,.26.61c2.25,3.95,4.47,7.91,6.77,11.83.5.85.26,1.25-.4,1.75a58.7,58.7,0,0,0-5.46,4.55,8.48,8.48,0,0,0,1.16-.51c1.65-1,3.31-2.07,4.92-3.18.77-.53,1.15-.38,1.57.4.6,1.11,1.3,2.17,2,3.25a9,9,0,0,0,.45,1.1c1.56,2.74,3.12,5.49,4.72,8.2,1.35,2.29,1.36,2.23-.95,3.47-1.46.79-2.83,1.74-4.24,2.61l-1.81.51c1.13.72,1.86.64,2.53-.06a11.52,11.52,0,0,0,1.51-.34c1.53-.56,3-1.2,4.59-1.73a1.18,1.18,0,0,1,1.06.25c.59.84,1.05,1.78,1.57,2.67,1.56,2.69,3.14,5.37,4.67,8.07,1.4,2.46,2.76,4.94,4.14,7.42a5.91,5.91,0,0,1-1,.19l-37.38,0c0-.72,0-1.44,0-2.16q0-32.24,0-64.49c.65.92,1.36,1.8,2,2.77C82.58,160.23,83.43,161.8,84.31,163.35Z"/><path class="cls-7" d="M79.71,155.95q0,32.24,0,64.49c0,.72,0,1.44,0,2.16l-19.41,0a5.48,5.48,0,0,0-.34-1.49c-1.4-2.51-2.87-5-4.27-7.47A1.17,1.17,0,0,0,54,213c-.91.34-1.83.65-2.74,1l-.13-.29c.85-.48,1.7-1,2.57-1.43.63-.32.75-.61.35-1.29-1-1.74-2-3.56-2.92-5.34,1.19-2.1,1.19-2.09,3.58-1.16q4.61,1.78,9.23,3.52A1.58,1.58,0,0,0,65,208L59.48,205l-5.24-2.87c-.51-.28-.83-.52-.45-1.2,2.79-4.83,5.54-9.68,8.31-14.52a2.63,2.63,0,0,1,.44-.42l6.72,4.27.24-.33L63,184.8l7.62-13.29L75,174.85l.19-.11a6,6,0,0,0-.57-1c-.86-1-1.79-1.93-2.6-3a1.48,1.48,0,0,1-.23-1.29c2.54-4.5,5.13-9,7.72-13.45C79.55,156,79.64,156,79.71,155.95ZM69.51,190l-.17.28,1.06.67.18-.3Zm-4.1,18.4.08-.06s0-.06-.06-.07,0,0-.07.05Z"/><path class="cls-6" d="M51.13,205.61c1,1.78,1.88,3.6,2.92,5.34.4.68.28,1-.35,1.29-.87.45-1.71.95-2.57,1.43l.13.29c.91-.32,1.84-.62,2.74-1a1.17,1.17,0,0,1,1.65.66c1.4,2.51,2.87,5,4.27,7.47a5.47,5.47,0,0,1,.34,1.49H41.33l-.28-.23q0-15.57,0-31.13a8.7,8.7,0,0,0-.26-1.5l.12-.46.16-.19a3.77,3.77,0,0,1,.88.77q1.61,2.71,3.13,5.47a5.08,5.08,0,0,1,.29,1.25,3.7,3.7,0,0,1,.92.83,52.67,52.67,0,0,1,3,5.4C49.78,203.87,50.59,204.64,51.13,205.61Zm-2-1.58s0-.07-.07-.07-.05,0-.08.06l.11.08Z"/><path class="cls-8" d="M40.78,189.74a8.7,8.7,0,0,1,.26,1.5q0,15.57,0,31.13l-18.69.05,0-.51c1.63-2.87,3.25-5.76,4.93-8.6a1.35,1.35,0,0,1,1.13-.44,8.54,8.54,0,0,1,1.75.62l.2-.28a10.11,10.11,0,0,0-1.29-.9c-.67-.33-.87-.69-.46-1.39,1.24-2.13,2.42-4.3,3.68-6.42.16-.27.67-.34,1-.5l.34.14.22.16,0-.11-.26,0-.19-.28c0-.44-.15-.95,0-1.3.74-1.45,1.71-2.8,2.32-4.29.4-1,1.45-1.39,1.64-2.59s1.06-2,1.64-3S40.2,190.73,40.78,189.74Z"/><path class="cls-8" d="M41.06,189.09l-.16.19Z"/><path class="cls-7" d="M338.69,202l-2.18-1.86,4.55-7.94,1.65,1,.24.24.19.12,0-.29-.25-.21c-1.48-1.24-1-2.44-.12-3.84,1.25-1.88,2.26-3.92,3.41-5.87.12-.2.46-.27.69-.41q0,19.7,0,39.4l-22.8,0a16.31,16.31,0,0,1,.69-1.64c1.36-2.48,2.75-4.94,4.12-7.41a2,2,0,0,0,.26-.24c1.19-1.59,1.19-1.59,3.08-.9l4,1.46.48.24.34,0-.18-.23-.51-.22c-1.6-.89-3.22-1.75-4.79-2.69-.29-.17-.61-.83-.5-1,1.63-3,3.33-5.9,5.06-8.92l2.43,1.38.28,0Zm4.95-8.16-.07-.08a1,1,0,0,0-.08.16s0,0,.07.07Z"/><path class="cls-9" d="M346.82,222.3q0-19.7,0-39.4c1.53,2.6,3.08,5.19,4.58,7.81a1.36,1.36,0,0,1-.15,1,6.12,6.12,0,0,1-.79,1l0,.38-.51.22-.21.51-.09,0,.07-.05.38-.36.34-.36.31-.17,1.45-.93,4.55,7.93-2.27,2-.34.16-.07.27.25-.11.31-.17,2.51-1.46c1,1.68,2,3.32,2.9,5,.66,1.14,1.23,2.33,1.95,3.43.54.83.51,1.25-.46,1.7-1.36.64-2.64,1.47-4,2.22l-.51.17,0,.13.66-.06c1.57-.56,3.13-1.16,4.72-1.65a1.24,1.24,0,0,1,1.11.37c2,3.33,3.87,6.69,5.8,10.05l0,.41-22.57,0Zm6.93-19.69s0-.06-.06-.07,0,0-.07.05,0,.06.06.07S353.72,202.63,353.75,202.61Z"/><path class="cls-9" d="M293.82,182.67c1.51,2.57,3,5.13,4.49,7.73.16.28,0,.84-.22,1.21a3.81,3.81,0,0,0-.6,1.21l1.6-1.07,4.58,8-1.89,1.65-.48.3.08.14.62-.19,2-1.23,1.08,1.64c1.28,2.28,2.52,4.59,3.86,6.83.48.81.46,1.19-.44,1.62-1.72.82-3.38,1.76-5.07,2.64a4.24,4.24,0,0,1-.44.17l.23.33,3.71-1.41c.11,0,.2-.13.31-.18,2.77-1.29,2.91-1.24,4.32,1.5-.3,1-.56,1.91.58,2.35-.57.11-1.46,0-1.68.38-1.24,2-2.32,4.07-3.45,6.12l-13.21.05q0-10.17,0-20.35Q293.79,192.37,293.82,182.67Zm3,10.42-.37.41.15.13.36-.38.17-.31Z"/><path class="cls-8" d="M307,222.36c1.13-2,2.21-4.13,3.45-6.12.22-.35,1.11-.27,1.68-.38-1.14-.44-.88-1.39-.58-2.35a24.75,24.75,0,0,0,1.58-2.16c2.27-3.92,4.51-7.87,6.76-11.8.18-.31.28-1.13.81-.21a10,10,0,0,0-.26,1.62q0,10.69,0,21.38c-.48,0-1,.05-1.43.05l-11.78,0Z"/><path class="cls-9" d="M320.42,222.32q0-10.69,0-21.38a10,10,0,0,1,.26-1.62c.86,1.55,1.71,3.12,2.59,4.66.3.53.74,1,1,1.5,1.51,2.59,3,5.19,4.49,7.78-1.38,2.47-2.76,4.93-4.12,7.41a16.31,16.31,0,0,0-.69,1.64v.11h-3.62Z"/><path class="cls-7" d="M219.74,186.78c-1.83-1.51-3.66-3-5.5-4.52s-3.61-2.85-5.38-4.32a1,1,0,0,1-.26-1c2.79-4.91,5.63-9.79,8.46-14.68.06-.1.18-.15.39-.32l5.17,4.05.3-.2a6.41,6.41,0,0,0-.72-1.48q-1.58-1.85-3.31-3.59a1.1,1.1,0,0,1-.15-1.57c2.89-5,5.73-10,8.62-15A8.35,8.35,0,0,1,228.5,143q0,39.49,0,79a1.3,1.3,0,0,0,0,.18c-.64,0-1.28.05-1.92.06-11.59.07-23.18.17-34.77.19-12.72,0-25.43,0-38.15,0,1.19-2.25,2.35-4.52,3.57-6.75,1.33-2.45,2.72-4.87,4.08-7.31.42-.08.91-.33,1.26-.21,2.59.95,5.15,2,7.92,2.77a8.48,8.48,0,0,0-1-.81c-2-1.1-4-2.19-6-3.24-.68-.35-.84-.7-.43-1.4,2.13-3.64,4.26-7.28,6.32-11,.42-.75.75-.75,1.38-.32,1.22.84,2.47,1.63,3.71,2.44l.21-.3c-1.11-.87-2.18-1.8-3.34-2.6-.87-.6-1-1.11-.39-2,1.71-2.82,3.33-5.69,4.92-8.58.47-.85.83-.87,1.53-.28s1.58,1.17,2.38,1.74l.11.13.07-.06-.14-.11c-.77-.94-1.58-1.86-2.3-2.84a1.26,1.26,0,0,1-.13-1.1q2.87-5.17,5.85-10.28c.17-.29.59-.42.9-.63,0,1.27,0,2.54,0,3.81q0,21.84,0,43.67c0,.77-.07,1.53-.13,2.55.25-.33.35-.44.43-.57,3.22-5.56,6.46-11.11,9.65-16.69,1.18-2.07,1.39-2.18,3.54-1.21.15.07.28.17.43.22l5.88,2a2.32,2.32,0,0,0,.55.44q3.06,1.18,6.13,2.32c.89.33,1.8.61,2.7.92l.12-.26L202.56,201l-4.88-2.67a.94.94,0,0,1-.44-1.47c.47-.9.86-1.85,1.29-2.78.71-1.05,1.47-2.07,2.11-3.16q3.1-5.31,6.11-10.68c.46-.82.88-.94,1.69-.42,3.7,2.4,7.44,4.75,11.16,7.12l.17.07Zm-44.64,9.8h-.4l.23.2.27.14Zm.78.75s0-.07-.07-.07-.05,0-.08.07,0,.07.07.07S175.86,197.35,175.89,197.32Z"/><path class="cls-6" d="M131.51,222.6c-3.55,0-7.1,0-10.65,0a5.91,5.91,0,0,1-1-.19c0-.64,0-1.28,0-1.92q0-31.24,0-62.49a14.8,14.8,0,0,0-.23-1.87c.23.1.55.14.67.32.76,1.16,1.48,2.35,2.21,3.53,1,1.81,1.95,3.62,3,5.41.76,1.35,1.61,2.65,2.31,4a1.49,1.49,0,0,1-.15,1.31c-.81,1-1.75,2-2.61,2.93a1.83,1.83,0,0,0-.47,1.2l4.33-3.36c.72,1.18,1.39,2.24,2,3.33,1.73,3,3.42,6.11,5.19,9.12.44.75.23,1.09-.37,1.54-1.62,1.21-3.21,2.47-4.81,3.71-.3.24-.58.52-.86.78l.19.29c1.24-.78,2.48-1.54,3.71-2.34.87-.56,1.68-1.21,2.58-1.7a1.09,1.09,0,0,1,1,.27c1.87,3.19,3.69,6.41,5.52,9.62l1.53,2.69-3.39,5.82a2.79,2.79,0,0,0-.78.16c-2,1.08-4,2.18-6,3.27l.1.26,5.76-2.07c-.9,1.72-1.76,3.47-2.73,5.15-.47.82-.26,1.21.5,1.58s1.56.85,2.33,1.27l-.18.36-2.26-.9a1.45,1.45,0,0,0-2.15.75c-.89,1.73-2,3.37-2.89,5.08-.49.89-.85,1.85-1.26,2.77Zm-2.67-31.86.08.19.51-.21-.1-.23Zm.54-.28.14.25.58-.42-.13-.19Z"/><path class="cls-9" d="M203.87,203.43l-5.88-2c-.15-.05-.28-.15-.43-.22-2.15-1-2.36-.86-3.54,1.21-3.19,5.58-6.43,11.13-9.65,16.69-.07.13-.18.24-.43.57.05-1,.13-1.78.13-2.55q0-21.84,0-43.67c0-1.27,0-2.54,0-3.81.29.24.67.42.85.72,1.86,3.19,3.65,6.42,5.53,9.59a1.15,1.15,0,0,1-.21,1.73,18.07,18.07,0,0,0-1.57,1.86l.22.26c.54-.39,1.06-.82,1.62-1.17a9.05,9.05,0,0,1,1.24-.55c1.78,3.16,3.52,6.34,5.36,9.46.49.82.35,1.27-.34,1.77-.87.64-1.7,1.32-2.55,2l.26.37,2.82-1.85c.48-.31.94-.57,1.18.25-.43.93-.82,1.87-1.29,2.78a.94.94,0,0,0,.44,1.47l4.88,2.67Zm-11-7.1-.09.28.26-.08.15-.23Zm.91-.26.46-.42-.16-.16-.54.37-.11.27Zm-1.63,1.06,0-.08h-.08Zm-3.75-13-.08-.08a.7.7,0,0,0-.07.15s0,0,.07.08Z"/><path class="cls-7" d="M141.13,204.66l3.39-5.82,1.63-1.8a1.88,1.88,0,0,1,.1-.92c1.07-2,2.21-3.94,3.33-5.91.29-.51.59-1.06,1.15-.22a14.06,14.06,0,0,0-.22,1.76q0,15.28,0,30.56l-18.94,0c.42-.93.78-1.88,1.26-2.77.94-1.71,2-3.35,2.89-5.08a1.45,1.45,0,0,1,2.15-.75l2.26.9.18-.36c-.78-.43-1.54-.89-2.33-1.27s-1-.76-.5-1.58c1-1.68,1.83-3.43,2.73-5.15Z"/><path class="cls-6" d="M150.47,222.32q0-15.28,0-30.56a14.06,14.06,0,0,1,.22-1.76c1.2,2.06,2.41,4.12,3.56,6.21.17.3,0,.78,0,1.18l-.12.21h.29c.29.1.72.11.83.3,1.14,1.92,2.23,3.86,3.31,5.81.11.19,0,.49.18.57l2.51,4c-1.36,2.43-2.75,4.86-4.08,7.31-1.22,2.24-2.38,4.5-3.57,6.75Z"/><path class="cls-6" d="M228.52,221.94q0-39.49,0-79a32.65,32.65,0,0,1,2,2.79q3.88,6.64,7.64,13.36a1.45,1.45,0,0,1-.18,1.31c-1.07,1.27-2.27,2.44-3.36,3.7a6.73,6.73,0,0,0-.75,1.51l.29.22,5.38-4.25c1.18,2,2.32,4,3.44,5.92,1.7,3,3.37,6,5.1,8.91.35.59.43.92-.17,1.38-2.2,1.69-4.36,3.44-6.55,5.16-1.12.88-2.27,1.72-3.39,2.61a2.12,2.12,0,0,0-.74,1.18l6.78-4.33c1.5-1,3-1.93,4.49-2.94.69-.47,1.1-.4,1.52.34,1.26,2.25,2.58,4.48,3.87,6.72q2.76,4.8,5.52,9.61a5.66,5.66,0,0,1,.31.77l-.93,1.48a7.89,7.89,0,0,0-1.21.43q-5.94,3.25-11.86,6.53l-2.32,1.31.13.26,12.95-4.85a6.53,6.53,0,0,1-1.17,2.71c-1.38,2-2.48,4.16-3.71,6.25-.42.72-.2,1.19.48,1.57s1.55.91,2.32,1.36a21.75,21.75,0,0,1-2.86-.68c-.4-.09-1.14,0-1.3.31-1.62,2.74-3.15,5.53-4.7,8.31Z"/><path class="cls-8" d="M293.82,182.67q0,9.69,0,19.39,0,10.17,0,20.35l0,.07L271,222.42l0-.47c1.27-2.2,2.56-4.39,3.78-6.62a5.11,5.11,0,0,0,.3-1.52l2.43-2.68,5.66,2.26.48.25.42,0-.28-.21-.47-.25c-1.52-.86-3-1.75-4.56-2.55-.74-.38-.89-.71-.45-1.46.76-1.29,1.41-2.65,2.11-4l1.76-2.79c.35-.56.69-1.14,1.09-1.8l2.5,1.47.31.18.34.08-.17-.26-.34-.14-2.3-2,4.57-8,1.46,1,.3.18.54.2v.06l0,0-.4-.31-.15-.31c-.2-.23-.39-.48-.61-.7a1.21,1.21,0,0,1-.23-1.67c1.51-2.56,3-5.16,4.43-7.74,0-.08.17-.11.26-.17Zm-7.14,20.15c0-.06.08-.13.07-.18s-.09-.06-.14-.09-.06.11-.05.15S286.64,202.78,286.68,202.82Z"/><path class="cls-7" d="M258.8,198.39l.93-1.48.63.11.16.1v-.25c0-.39-.19-.86,0-1.15,1.07-2,2.18-4,3.33-5.9.16-.28.6-.39.91-.58q0,16.32,0,32.64H245.55c1.55-2.78,3.08-5.57,4.7-8.31.16-.28.89-.4,1.3-.31a21.75,21.75,0,0,0,2.86.68c-.77-.46-1.54-.92-2.32-1.36s-.9-.85-.48-1.57c1.23-2.09,2.33-4.27,3.71-6.25a6.54,6.54,0,0,0,1.17-2.71l.1.06,0,.11.29-.27Z"/><path class="cls-9" d="M264.72,221.88q0-16.32,0-32.64a16.14,16.14,0,0,1,1,1.39c.89,1.51,1.78,3,2.59,4.58a6.77,6.77,0,0,1,.41,1.67,4.25,4.25,0,0,1,1.1.9c1,1.6,2,3.21,2.79,4.89,1.45,2.91,3.48,5.49,4.81,8.47L275,213.81a5.11,5.11,0,0,1-.3,1.52c-1.22,2.23-2.51,4.42-3.78,6.62Z"/><path class="cls-7" d="M119.54,156.16a14.8,14.8,0,0,1,.23,1.87q0,31.24,0,62.49c0,.64,0,1.28,0,1.92h-1.7c-1.38-2.47-2.74-5-4.14-7.42-1.54-2.7-3.12-5.38-4.67-8.07-.52-.9-1-1.83-1.57-2.67a1.18,1.18,0,0,0-1.06-.25c-1.54.53-3.05,1.17-4.59,1.73a11.51,11.51,0,0,1-1.51.34l-.72-.45c1.41-.88,2.78-1.83,4.24-2.61,2.3-1.24,2.3-1.18.95-3.47-1.6-2.72-3.16-5.46-4.72-8.2a9,9,0,0,1-.45-1.1c.55-1,1.15-2,1.65-3,.41-.84.85-.83,1.57-.34,2.39,1.62,4.83,3.19,7.24,4.78l.29.08.43.29.28.2.16.12,0-.24-.25-.23-.42-.31-.29-.19c-2.22-1.75-4.4-3.55-6.67-5.23a1.36,1.36,0,0,1-.44-2.15c2.23-3.78,4.38-7.6,6.56-11.41a6.68,6.68,0,0,1,.48-.62l4.26,3.32.22-.18a8.55,8.55,0,0,0-.66-1c-.86-1-1.8-1.92-2.62-2.95a1.37,1.37,0,0,1-.2-1.21c2.52-4.48,5.1-8.93,7.68-13.38A2.11,2.11,0,0,1,119.54,156.16ZM112,192.51s-.05-.07-.08-.07-.05,0-.08.07,0,.07.07.07S112,192.54,112,192.51Z"/><path class="cls-10" d="M99.84,205.64l.72.45c-.67.7-1.4.78-2.53.06Z"/><path class="cls-1" d="M69.51,190l1.07.65-.18.3-1.06-.67Z"/><path class="cls-1" d="M65.41,208.43l-.06-.07s.05-.05.07-.05,0,0,.06.07Z"/><path class="cls-1" d="M49.17,204l0,.07L49,204s.05-.06.08-.06S49.15,204,49.17,204Z"/><path class="cls-1" d="M33.6,204.18l.26,0,0,.11-.22-.16Z"/><path class="cls-1" d="M33.41,203.89l.19.28,0,0-.34-.14Z"/><path class="cls-2" d="M343.64,193.81l-.08.16s-.08-.06-.07-.07a1,1,0,0,1,.08-.16Z"/><path class="cls-2" d="M336.69,213.82l-.48-.24.14-.17.51.22Z"/><path class="cls-2" d="M336.86,213.63l.18.23-.34,0Z"/><path class="cls-2" d="M338.69,202l.14.16-.28,0Z"/><path class="cls-2" d="M343.1,193.22l0,.29-.19-.12Z"/><path class="cls-2" d="M342.85,193l.25.21-.16.17-.24-.24Z"/><path class="cls-2" d="M357.73,213.2l-.66.06,0-.13.51-.17Z"/><path class="cls-2" d="M350.42,193.12l-.34.36-.15-.12.51-.22Z"/><path class="cls-2" d="M350.08,193.47l-.38.36,0,0,.21-.51Z"/><path class="cls-2" d="M354.6,202.1l-.31.17-.18-.16.34-.16Z"/><path class="cls-2" d="M349.7,193.84l-.07.05.09,0Z"/><path class="cls-2" d="M350.72,192.95l-.31.17h0l0-.38Z"/><path class="cls-2" d="M354.29,202.28l-.25.11.07-.27Z"/><path class="cls-2" d="M353.75,202.61s-.05.05-.07.05,0,0-.06-.07.05-.05.07-.05S353.73,202.59,353.75,202.61Z"/><path class="cls-1" d="M302,201.6l-.62.19-.08-.14.48-.3Z"/><path class="cls-1" d="M297,193.24l-.36.38-.15-.13.37-.41Z"/><path class="cls-1" d="M296.87,193.09l.31-.15-.17.31Z"/><path class="cls-10" d="M203.87,203.43,202.56,201l10.81,5.88-.12.26c-.9-.3-1.81-.59-2.7-.92q-3.07-1.14-6.13-2.32A2.32,2.32,0,0,1,203.87,203.43Z"/><path class="cls-1" d="M175.89,197.32s-.05.07-.08.07,0,0-.07-.07.05-.07.08-.07S175.86,197.3,175.89,197.32Z"/><path class="cls-1" d="M175.1,196.57l.09.34-.27-.14Z"/><path class="cls-1" d="M174.93,196.77l-.23-.2h.4Z"/><path class="cls-2" d="M219.74,186.78l0,.21-.17-.07Z"/><path class="cls-1" d="M179.79,184.47l.14.11-.07.06-.11-.13Z"/><path class="cls-1" d="M141.13,204.66l-.95,1.63-5.76,2.07-.1-.26c2-1.09,4-2.2,6-3.27A2.79,2.79,0,0,1,141.13,204.66Z"/><path class="cls-1" d="M128.84,190.74l.49-.24.1.23-.51.21Z"/><path class="cls-1" d="M129.38,190.46l.58-.36.13.19-.58.42Z"/><path class="cls-2" d="M193.53,195.87l.54-.37.16.16-.46.42Z"/><polygon class="cls-2" points="192.15 197.14 192.11 197.05 192.19 197.06 192.15 197.14"/><path class="cls-2" d="M193,196.53l-.26.08.09-.28Z"/><path class="cls-2" d="M192.86,196.33l.32,0-.15.23Z"/><path class="cls-2" d="M193.77,196.08l-.35.07.11-.27Z"/><path class="cls-1" d="M188.4,184.09l-.08.14s-.07-.06-.07-.08a.7.7,0,0,1,.07-.15Z"/><path class="cls-1" d="M154.46,197.62h-.29l.12-.21Z"/><path class="cls-10" d="M258.8,198.39l-2,3.58-.29.27,0-.11-.1-.06-12.95,4.85-.13-.26,2.32-1.31q5.92-3.27,11.86-6.53A7.89,7.89,0,0,1,258.8,198.39Z"/><path class="cls-1" d="M290.45,193.35l-.54-.2.1-.09.4.31Z"/><path class="cls-1" d="M290.42,193.36l0,0v-.06Z"/><path class="cls-2" d="M283.6,213.64l-.48-.25.15-.17.47.25Z"/><path class="cls-2" d="M283.74,213.47l.28.21-.42,0Z"/><path class="cls-1" d="M286.68,202.82s-.11-.08-.13-.13,0-.1.05-.15.14.06.14.09S286.71,202.76,286.68,202.82Z"/><path class="cls-1" d="M286.22,202.12l.17.26-.34-.08Z"/><path class="cls-1" d="M285.88,202l.34.14-.18.18-.31-.18Z"/><path class="cls-1" d="M289.87,192.75l.15.31-.1.09-.3-.18Z"/><path class="cls-2" d="M260.51,196.87v.25l-.16-.1Z"/><path class="cls-6" d="M256.56,202.23l.29-.27Z"/><path class="cls-2" d="M111,192l-.43-.29.17-.18.42.31Z"/><path class="cls-2" d="M112,192.51s-.06.07-.08.07,0,0-.07-.07.05-.07.08-.07S112,192.49,112,192.51Z"/><path class="cls-2" d="M111.46,192.09l0,.24-.16-.12Z"/><path class="cls-2" d="M111.33,192.21,111,192l.16-.16.25.23Z"/><path class="cls-2" d="M110.5,191.37l.29.19-.17.17-.29-.08Z"/></g></g></svg>